<svg width="105" height="27" viewBox="0 0 105 27" fill="none" xmlns="http://www.w3.org/2000/svg">
<path d="M0.232422 26H4.76758V17.6152H10.0059C15.1387 17.6152 18.6367 14.2051 18.6367 9.14258V9.10742C18.6367 4.02734 15.1387 0.634766 10.0059 0.634766H0.232422V26ZM8.88086 4.34375C12.1328 4.34375 14.0312 6.08398 14.0312 9.125V9.16016C14.0312 12.2012 12.1328 13.959 8.88086 13.959H4.76758V4.34375H8.88086ZM21.5195 26H25.8965V15.1895C25.8965 12.4297 27.3906 10.8652 29.8691 10.8652C30.6074 10.8652 31.2754 10.9707 31.6445 11.1113V7.15625C31.3105 7.06836 30.8008 6.98047 30.2559 6.98047C28.1113 6.98047 26.5645 8.33398 25.9844 10.584H25.8965V7.36719H21.5195V26ZM41.3828 26.3691C46.252 26.3691 48.9941 23.4863 49.5742 20.6211L49.627 20.4277H45.5312L45.4961 20.5508C45.0742 21.7988 43.6504 22.959 41.4707 22.959C38.623 22.959 36.8301 21.0254 36.7598 17.7559H49.8027V16.3496C49.8027 10.7246 46.498 6.98047 41.1719 6.98047C35.8457 6.98047 32.418 10.8477 32.418 16.7188V16.7363C32.418 22.6602 35.793 26.3691 41.3828 26.3691ZM41.2246 10.4082C43.5449 10.4082 45.2324 11.8848 45.5488 14.8379H36.8125C37.1641 11.9727 38.9043 10.4082 41.2246 10.4082ZM59.9102 26.3691C64.4805 26.3691 67.7324 24.0137 67.7324 20.498V20.4805C67.7324 17.7734 66.2383 16.2617 62.3887 15.4004L59.2773 14.7148C57.3438 14.2754 56.623 13.5723 56.623 12.5V12.4824C56.623 11.1113 57.8359 10.2148 59.7695 10.2148C61.8086 10.2148 63.0039 11.3047 63.1973 12.7988L63.2148 12.9395H67.293L67.2754 12.7461C67.1172 9.5293 64.4102 6.98047 59.7695 6.98047C55.2695 6.98047 52.2988 9.2832 52.2988 12.6934V12.7109C52.2988 15.4707 54.0918 17.2109 57.6602 18.002L60.7539 18.6875C62.6875 19.127 63.3379 19.7598 63.3379 20.8848V20.9023C63.3379 22.2734 62.0547 23.1348 59.9277 23.1348C57.7129 23.1348 56.5 22.1855 56.166 20.5859L56.1309 20.4277H51.8242L51.8418 20.5859C52.2285 24.0488 55.0234 26.3691 59.9102 26.3691ZM77.8047 26.3691C82.375 26.3691 85.627 24.0137 85.627 20.498V20.4805C85.627 17.7734 84.1328 16.2617 80.2832 15.4004L77.1719 14.7148C75.2383 14.2754 74.5176 13.5723 74.5176 12.5V12.4824C74.5176 11.1113 75.7305 10.2148 77.6641 10.2148C79.7031 10.2148 80.8984 11.3047 81.0918 12.7988L81.1094 12.9395H85.1875L85.1699 12.7461C85.0117 9.5293 82.3047 6.98047 77.6641 6.98047C73.1641 6.98047 70.1934 9.2832 70.1934 12.6934V12.7109C70.1934 15.4707 71.9863 17.2109 75.5547 18.002L78.6484 18.6875C80.582 19.127 81.2324 19.7598 81.2324 20.8848V20.9023C81.2324 22.2734 79.9492 23.1348 77.8223 23.1348C75.6074 23.1348 74.3945 22.1855 74.0605 20.5859L74.0254 20.4277H69.7188L69.7363 20.5859C70.123 24.0488 72.918 26.3691 77.8047 26.3691ZM93.9238 26.3164C96.3848 26.3164 98.459 25.0859 99.5312 23.1348H99.6367V26H104.014V13.1855C104.014 9.44141 101.008 6.98047 96.3496 6.98047C91.6211 6.98047 88.7559 9.45898 88.4922 12.7637L88.4746 12.9746H92.5352L92.5703 12.8164C92.8516 11.4453 94.1172 10.4785 96.1914 10.4785C98.4062 10.4785 99.6367 11.6211 99.6367 13.502V14.7852L94.7676 15.084C90.25 15.3652 87.6836 17.3516 87.6836 20.6562V20.6914C87.6836 24.0137 90.1973 26.3164 93.9238 26.3164ZM92.043 20.5156V20.498C92.043 19.0215 93.2207 18.0898 95.3828 17.9492L99.6367 17.6855V19.0918C99.6367 21.3066 97.7383 22.9766 95.2246 22.9766C93.3086 22.9766 92.043 22.0449 92.043 20.5156Z" fill="white"/>
</svg>
